<svg width="512" height="512" viewBox="0 0 512 512" fill="none" xmlns="http://www.w3.org/2000/svg">
  <rect width="512" height="512" rx="128" fill="#0ea5e9"/>
  <path d="M256 128C176.5 128 112 192.5 112 272C112 351.5 176.5 416 256 416C335.5 416 400 351.5 400 272C400 192.5 335.5 128 256 128ZM256 368C203.2 368 160 324.8 160 272C160 219.2 203.2 176 256 176C308.8 176 352 219.2 352 272C352 324.8 308.8 368 256 368Z" fill="white"/>
  <circle cx="256" cy="272" r="48" fill="white"/>
  <path d="M256 208C229.5 208 208 229.5 208 256C208 282.5 229.5 304 256 304C282.5 304 304 282.5 304 256C304 229.5 282.5 208 256 208ZM256 280C242.7 280 232 269.3 232 256C232 242.7 242.7 232 256 232C269.3 232 280 242.7 280 256C280 269.3 269.3 280 256 280Z" fill="#0ea5e9"/>
</svg> 